<?xml version="1.0" encoding="UTF-8" standalone="no"?>
<svg
   version="1.0"
   width="1474.5537pt"
   height="885.20935pt"
   viewBox="0 0 1474.5537 885.20935"
   preserveAspectRatio="xMidYMid"
   id="svg10"
   sodipodi:docname="Imagen1.svg"
   inkscape:export-filename="Imagen--1.svg"
   inkscape:export-xdpi="5.8593998"
   inkscape:export-ydpi="5.8593998"
   inkscape:version="1.3.2 (091e20e, 2023-11-25, custom)"
   xmlns:inkscape="http://www.inkscape.org/namespaces/inkscape"
   xmlns:sodipodi="http://sodipodi.sourceforge.net/DTD/sodipodi-0.dtd"
   xmlns="http://www.w3.org/2000/svg"
   xmlns:svg="http://www.w3.org/2000/svg">
  <defs
     id="defs10" />
  <sodipodi:namedview
     id="namedview10"
     pagecolor="#ffffff"
     bordercolor="#000000"
     borderopacity="0.25"
     inkscape:showpageshadow="2"
     inkscape:pageopacity="0.0"
     inkscape:pagecheckerboard="0"
     inkscape:deskcolor="#d1d1d1"
     inkscape:document-units="pt"
     showgrid="false"
     inkscape:zoom="0.59263715"
     inkscape:cx="981.20747"
     inkscape:cy="412.56273"
     inkscape:window-width="1920"
     inkscape:window-height="1017"
     inkscape:window-x="-8"
     inkscape:window-y="-8"
     inkscape:window-maximized="1"
     inkscape:current-layer="svg10" />
  <g
     transform="matrix(0.1,0,0,-0.1,-3.2922877,1035.3089)"
     fill="#FFF"
     stroke="none"
     id="g10">
    <path
       d="m 3692,10346 c -11,-6 -344,-331 -739,-721 C 2558,9234 2015,8699 1745,8435 786,7497 167,6876 132,6817 64,6703 23,6533 35,6415 c 10,-92 42,-202 83,-279 47,-89 106,-151 714,-745 883,-864 1420,-1392 2088,-2056 708,-704 772,-765 795,-765 25,0 55,38 55,69 0,21 -18,52 -63,108 -620,771 -1041,1636 -1216,2498 -86,425 -125,980 -103,1478 30,671 132,1201 338,1754 82,221 121,308 249,561 202,402 412,733 700,1103 97,124 111,156 83,191 -19,22 -41,27 -66,14 z M 1779,7730 c 173,-23 301,-128 301,-249 0,-20 -4,-21 -144,-21 -140,0 -145,1 -148,21 -6,43 -51,64 -136,63 -88,0 -135,-17 -140,-52 -5,-32 56,-56 193,-77 198,-30 268,-54 333,-114 44,-41 64,-92 63,-162 0,-115 -44,-190 -138,-241 -82,-45 -154,-59 -298,-59 -207,0 -342,37 -411,113 -45,51 -64,95 -64,153 v 45 h 145 145 v -30 c 0,-35 29,-65 72,-74 49,-10 172,-7 206,5 53,18 51,68 -4,89 -12,5 -87,20 -166,34 -167,29 -241,55 -298,103 -59,51 -84,104 -84,183 0,82 29,139 98,191 99,75 277,104 475,79 z m 19,-1344 c 91,-23 150,-57 208,-118 79,-83 98,-143 99,-303 0,-125 -1,-132 -32,-197 -40,-85 -97,-142 -186,-184 -99,-46 -164,-54 -453,-54 h -251 l -5,268 c -3,147 -3,345 0,441 l 5,173 276,-5 c 205,-4 292,-9 339,-21 z"
       id="path1" />
    <path
       d="m 1480,5970 v -220 h 93 c 147,1 206,39 228,152 23,119 -13,224 -90,265 -37,19 -59,23 -138,23 h -93 z"
       id="path2" />
    <path
       d="M 9286,10318 C 9278,10305 8130,8353 6735,5980 5340,3607 4185,1644 4169,1617 l -29,-47 432,2 432,3 1379,2345 c 758,1290 1918,3262 2577,4383 l 1198,2037 h -429 -429 z"
       id="path3" />
    <path
       d="m 11010,9400 c -11,-11 -20,-33 -20,-49 0,-31 0,-31 161,-243 646,-852 1028,-1733 1174,-2703 51,-343 60,-471 60,-930 0,-449 -7,-560 -56,-895 -123,-852 -436,-1639 -957,-2405 -77,-112 -319,-441 -345,-466 -57,-58 -44,-149 22,-149 15,0 104,81 295,268 150,147 592,579 982,961 390,382 828,812 974,956 146,143 382,375 525,515 143,140 357,351 476,468 119,117 225,220 237,228 41,28 146,170 178,240 63,139 79,301 45,449 -45,193 -62,214 -568,711 -240,236 -459,452 -487,479 -66,65 -978,958 -1031,1009 -22,21 -152,150 -290,285 -848,835 -1280,1258 -1304,1273 -34,23 -47,22 -71,-2 z"
       id="path4" />
    <path
       d="m 9055,7285 c -175,-28 -304,-77 -420,-160 -125,-89 -220,-226 -265,-385 -27,-97 -37,-286 -21,-400 41,-276 206,-483 471,-589 158,-63 404,-92 610,-72 163,16 269,44 395,106 204,99 324,241 387,461 20,68 23,102 23,244 -1,141 -4,177 -23,245 -88,307 -324,495 -692,551 -115,17 -355,17 -465,-1 z m 392,-391 c 107,-37 192,-121 223,-222 27,-88 28,-275 1,-360 -32,-104 -85,-164 -190,-215 -54,-25 -79,-31 -160,-35 -202,-10 -334,60 -402,213 -31,71 -39,287 -14,381 26,97 87,173 179,221 82,43 261,52 363,17 z"
       id="path5" />
    <path
       d="m 3261,7263 c -13,-26 -661,-1551 -661,-1558 0,-3 123,-5 274,-5 h 274 l 38,105 38,105 334,-2 334,-3 38,-100 37,-100 286,-3 c 158,-1 287,-1 287,1 0,1 -150,356 -333,787 l -334,785 -301,3 c -279,2 -302,1 -311,-15 z m 344,-550 c 20,-65 61,-185 90,-268 l 53,-150 -185,-3 c -102,-1 -187,-1 -189,1 -6,6 179,537 187,537 4,0 24,-53 44,-117 z"
       id="path6" />
    <path
       d="m 10985,7244 c -323,-50 -511,-194 -546,-418 -30,-194 58,-365 237,-458 120,-62 214,-87 521,-138 249,-41 312,-67 313,-128 0,-37 -19,-62 -58,-79 -89,-37 -357,-34 -447,6 -52,23 -76,56 -83,116 l -5,45 h -255 -255 l 6,-86 c 15,-251 214,-408 572,-453 427,-54 767,12 938,182 103,102 145,220 134,383 -11,189 -125,311 -360,388 -43,14 -189,44 -325,67 -136,22 -271,51 -301,62 -140,56 -107,149 63,178 86,14 207,7 261,-15 57,-24 94,-64 101,-108 l 7,-38 h 255 255 l -6,74 c -17,225 -219,378 -562,425 -104,15 -350,12 -460,-5 z"
       id="path7" />
    <path
       d="m 4710,6450 v -790 h 770 770 v 195 195 h -500 -500 v 110 110 h 420 420 v 185 185 h -420 -420 v 105 105 h 490 490 v 195 195 h -760 -760 z"
       id="path8" />
    <path
       d="m 12894,2785 c -237,-51 -416,-222 -480,-455 -24,-88 -24,-271 0,-359 78,-287 322,-470 626,-470 310,-1 560,188 635,479 23,86 23,253 0,340 -61,238 -252,420 -490,465 -93,18 -209,18 -291,0 z m 309,-132 c 161,-43 300,-198 343,-380 19,-79 14,-209 -10,-286 -54,-171 -199,-311 -363,-347 -79,-18 -219,-14 -294,9 -211,66 -349,264 -349,501 1,368 311,600 673,503 z"
       id="path9" />
    <path
       d="m 12914,2526 c -106,-26 -175,-84 -221,-181 -26,-56 -28,-68 -28,-195 0,-127 2,-139 28,-195 67,-144 193,-205 395,-192 109,7 168,27 227,79 57,50 83,100 93,178 l 9,60 h -112 -111 l -11,-43 c -7,-23 -24,-53 -38,-67 -23,-22 -36,-25 -95,-25 -59,0 -72,3 -94,24 -35,33 -46,79 -45,186 0,104 13,150 51,178 33,25 114,33 148,15 31,-17 70,-74 70,-104 0,-24 1,-24 118,-24 h 119 l -8,54 c -15,110 -82,197 -185,236 -73,28 -232,36 -310,16 z"
       id="path10" />
  </g>
</svg>
